<svg width="233" height="48" viewBox="0 0 233 48" fill="none" xmlns="http://www.w3.org/2000/svg">
<g clip-path="url(#clip0_2003_584)">
<path d="M23.2719 1.58993C20.3719 2.06993 15.9059 4.31993 13.2959 6.56993C8.82993 10.4699 6.39393 15.5099 5.92993 21.7499C5.46593 28.1699 7.32193 33.5399 12.0199 38.9999C14.6879 42.1199 20.2559 44.7299 25.5919 45.3299C33.3639 46.2599 41.5999 42.1799 46.0079 35.2499C47.6899 32.6699 49.4299 27.9899 48.9079 27.5699C48.4439 27.1499 44.0359 27.2399 43.8039 27.6599C43.6879 27.8699 42.9919 29.2499 42.3539 30.7499C40.4399 34.7999 35.7999 38.6999 31.6239 39.7199C22.6339 41.9399 13.6439 36.3599 11.4979 27.1799C9.81593 19.8299 13.1219 12.2699 19.6759 8.57993C22.5759 6.95993 25.3599 6.44993 29.6519 6.74993C32.0299 6.92993 33.0159 7.19993 34.8719 8.18993C38.0039 9.86993 41.5999 13.8299 42.8179 17.0099L43.8619 19.6499L46.5879 19.7399C49.7199 19.8599 49.7199 19.8599 48.4439 16.1999C46.0079 9.23993 39.2219 3.14993 32.0879 1.61993C29.8839 1.13993 26.0559 1.10993 23.2719 1.58993Z" fill="#CBCBCB"/>
<path d="M59.9275 13.8C58.1875 14.16 56.4475 15.39 54.9395 17.34C53.8375 18.81 53.6635 19.62 53.6635 22.95C53.6055 26.37 53.7795 27.06 54.9975 28.65C56.6795 30.84 60.0435 32.7 62.3055 32.7C64.5675 32.7 66.8295 31.89 68.6275 30.51C70.0775 29.34 70.1355 29.07 70.1355 25.44V21.6H66.3655H62.5955V23.1V24.6H64.6255H66.6555V26.52C66.6555 28.26 66.4815 28.53 65.1475 29.07C63.2915 29.82 62.1315 29.85 60.3915 29.22C56.5635 27.84 54.9975 22.8 57.3175 19.35C58.5935 17.46 60.7395 16.2 62.6535 16.2C63.8715 16.2 66.7715 17.49 67.4095 18.3C67.6995 18.69 67.8155 18.69 68.3375 18.3C69.6715 17.37 69.7295 16.41 68.6275 15.36C67.0035 13.83 63.1755 13.11 59.9275 13.8Z" fill="#CBCBCB"/>
<path d="M75.355 23.25V32.7H76.805H78.255V29.22C78.255 25.83 78.255 25.77 79.531 25.86C80.575 25.92 81.271 26.58 83.417 29.31C85.969 32.67 86.027 32.7 87.941 32.7C88.985 32.7 89.855 32.58 89.855 32.4C89.855 32.25 88.695 30.72 87.245 29.04L84.635 25.98L86.375 25.11C88.637 23.97 89.507 22.5 89.507 19.8C89.565 17.25 88.173 14.97 86.201 14.25C85.331 13.95 83.475 13.8 80.169 13.8H75.355V23.25ZM84.925 17.1C86.259 17.88 86.723 20.4 85.795 21.63C84.983 22.65 83.243 23.1 80.227 23.1H78.255V19.8V16.5H81.039C83.127 16.5 84.171 16.65 84.925 17.1Z" fill="#CBCBCB"/>
<path d="M95.0759 23.25V32.7H101.456H107.836V31.2V29.7H102.906H97.9759V27.15V24.6H102.326H106.676V23.1V21.6H102.326H97.9759V19.2V16.8H102.906H107.836V15.3V13.8H101.456H95.0759V23.25Z" fill="#CBCBCB"/>
<path d="M151.336 23.25V32.7H152.786H154.236V28.5V24.3H158.876H163.516V28.5V32.7H165.256H166.996V23.25V13.8H165.256H163.516V17.55V21.3H158.876H154.236V17.55V13.8H152.786H151.336V23.25Z" fill="#CBCBCB"/>
<path d="M177.61 14.2198C173.84 15.0898 171.056 18.9898 171.056 23.3998C171.056 28.9798 175.522 33.0298 181.09 32.4898C183.468 32.2498 186.542 30.1798 187.876 27.9598C189.442 25.4098 189.384 24.8398 187.76 24.9598C186.774 25.0198 186.368 25.3198 185.962 26.2798C185.382 27.8098 181.96 29.9998 180.104 29.9998C176.218 29.9998 173.666 27.3298 173.666 23.2498C173.666 19.1698 176.218 16.4998 180.046 16.4998C181.96 16.4998 184.802 18.3298 185.846 20.2498C186.6 21.5698 187.064 21.8998 187.992 21.8998C189.094 21.8998 189.152 21.7798 188.746 20.4898C187.818 17.1598 184.454 14.3698 180.916 13.9798C180.104 13.8898 178.654 14.0098 177.61 14.2198Z" fill="#CBCBCB"/>
<path d="M193.095 23.28V32.73L194.719 32.64L196.285 32.55L196.459 29.16C196.575 26.22 196.749 25.8 197.619 25.8C198.315 25.8 199.301 26.7 201.273 29.16C203.767 32.4 203.999 32.55 205.739 32.64C208.465 32.79 208.465 32.79 202.607 25.92C202.433 25.74 202.839 25.5 203.477 25.41C205.391 25.17 207.189 22.92 207.479 20.4C207.769 17.76 206.957 15.99 204.927 14.7C203.477 13.83 203.303 13.8 198.257 13.8H193.095V23.28ZM203.245 17.4C204.405 18.54 204.405 21.27 203.187 22.14C202.491 22.68 201.737 22.8 199.417 22.8H196.575V19.65V16.5H199.475C202.085 16.5 202.433 16.59 203.245 17.4Z" fill="#CBCBCB"/>
<path d="M211.076 23.0999V32.3999H212.816H214.556L214.672 25.4699L214.846 18.5399L217.862 23.2799C219.544 25.9199 221.458 29.0399 222.154 30.2099C223.43 32.3399 223.546 32.3999 225.402 32.3999H227.316V23.0999V13.7999H225.866H224.416L224.358 20.7599L224.3 27.7499L223.256 26.0999C222.676 25.1999 220.704 22.0499 218.848 19.1099L215.542 13.7999H213.338H211.076V23.0999Z" fill="#CBCBCB"/>
<path d="M111.896 14.49C111.896 14.7 113.462 17.28 115.376 20.25C118.856 25.62 118.856 25.65 118.856 29.16V32.7H120.596H122.336V29.07C122.336 25.41 122.336 25.41 125.816 19.89C127.73 16.86 129.296 14.3099 129.296 14.25C129.296 14.16 128.542 14.1 127.614 14.1C125.932 14.1 125.874 14.16 123.438 18.15C122.104 20.37 120.828 22.2 120.654 22.2C120.48 22.2 119.32 20.55 118.102 18.51C116.884 16.5 115.782 14.67 115.666 14.4599C115.318 13.9799 111.896 13.9799 111.896 14.49Z" fill="#CBCBCB"/>
<path d="M131.617 15.45V16.8H134.517H137.417V24.75V32.7H139.157H140.897V24.75V16.8H144.087H147.277V15.45V14.1H139.447H131.617V15.45Z" fill="#CBCBCB"/>
<path d="M35.9155 19.4699C35.9155 19.6799 36.3215 20.6699 36.8435 21.6599C37.6555 23.2799 37.6555 23.6699 36.8435 25.5299C36.3215 26.6399 35.9155 27.6299 35.9155 27.7499C35.9155 27.8399 37.4235 27.2699 39.2215 26.5199C42.4115 25.1699 46.7035 23.9999 48.5015 23.9999C50.0675 23.9999 48.9655 23.3399 46.6455 22.9199C45.4275 22.7099 43.2235 22.1099 41.8895 21.5999C40.4975 21.1199 39.1055 20.6999 38.8735 20.6999C38.5835 20.6999 37.7715 20.3399 37.1335 19.8599C36.4955 19.4099 35.9155 19.2299 35.9155 19.4699Z" fill="#CBCBCB"/>
<path d="M181.902 21.69C182.134 22.23 182.308 22.92 182.308 23.25C182.308 23.58 182.134 24.27 181.902 24.81L181.554 25.77L184.164 24.75C185.614 24.18 187.18 23.7 187.644 23.7C188.108 23.7 188.456 23.49 188.456 23.25C188.456 23.01 188.108 22.8 187.644 22.8C187.18 22.8 185.614 22.32 184.164 21.75L181.554 20.73L181.902 21.69Z" fill="#CBCBCB"/>
<path d="M91.3049 38.1598C90.8989 38.9398 89.2749 42.9898 89.2749 43.3798C89.2749 43.6198 89.6809 43.7998 90.1449 43.7998C90.7249 43.7998 91.0149 43.4998 91.0149 42.8998C91.0149 42.2098 91.3049 41.9998 92.1169 41.9998C92.9289 41.9998 93.3349 42.2398 93.4509 42.8098C93.5669 43.3498 94.0309 43.6798 94.7269 43.7398C95.5389 43.8298 95.7129 43.7398 95.4809 43.3798C95.2489 43.1098 94.6109 41.7298 94.0889 40.3498C93.4509 38.7298 92.8129 37.7998 92.2909 37.7998C91.8849 37.7998 91.4789 37.9798 91.3049 38.1598Z" fill="#CBCBCB"/>
<path d="M96.5838 38.2798C95.8298 39.3298 96.2358 40.4998 97.7438 41.2198C99.4258 41.9998 99.1358 42.7498 97.3378 42.4498C96.4678 42.2998 96.2358 42.4198 96.2358 43.0198C96.2358 43.6798 96.4678 43.7998 97.9758 43.7998C101.05 43.7998 101.862 42.0298 99.4258 40.5598C97.6858 39.4798 97.5698 38.8798 99.1358 39.0898C100.064 39.2098 100.296 39.0898 100.296 38.5198C100.296 37.9198 100.006 37.7998 98.6138 37.7998C97.6278 37.7998 96.8158 37.9798 96.5838 38.2798Z" fill="#CBCBCB"/>
<path d="M102.442 38.0099C102.21 38.0999 102.036 38.7599 102.036 39.4799C102.036 40.4699 102.326 40.8299 103.486 41.2199C105.168 41.7899 104.82 42.6599 102.964 42.5399C102.094 42.4799 101.746 42.5999 101.746 43.0499C101.746 43.8599 104.298 44.0399 105.342 43.3199C106.502 42.4799 106.212 41.3399 104.646 40.3799C102.906 39.3299 102.79 38.8799 104.356 39.0899C105.284 39.2099 105.516 39.0899 105.516 38.5199C105.516 37.9799 105.226 37.7999 104.182 37.7999C103.428 37.7999 102.616 37.8899 102.442 38.0099Z" fill="#CBCBCB"/>
<path d="M107.255 40.7998V43.7998H109.285C110.909 43.7998 111.315 43.6798 111.315 43.1998C111.315 42.8098 110.909 42.5998 110.155 42.5998C109.285 42.5998 108.995 42.3898 108.995 41.8498C108.995 41.3098 109.285 41.0998 110.155 41.0998C110.793 41.0998 111.315 40.8898 111.315 40.6498C111.315 40.4098 110.793 40.1998 110.155 40.1998C109.401 40.1998 108.995 39.9898 108.995 39.5998C108.995 39.2098 109.401 38.9998 110.155 38.9998C110.909 38.9998 111.315 38.7898 111.315 38.3998C111.315 37.9198 110.909 37.7998 109.285 37.7998H107.255V40.7998Z" fill="#CBCBCB"/>
<path d="M111.896 38.3998C111.896 38.7898 112.302 38.9998 113.056 38.9998C114.1 38.9998 114.216 39.2098 114.216 41.3998C114.216 43.3198 114.39 43.7998 115.086 43.7998C115.782 43.7998 115.956 43.3198 115.956 41.3998C115.956 39.4798 116.13 38.9998 116.826 38.9998C117.29 38.9998 117.696 38.7298 117.696 38.3998C117.696 37.8898 117.29 37.7998 114.796 37.7998C112.302 37.7998 111.896 37.8898 111.896 38.3998Z" fill="#CBCBCB"/>
<path d="M121.524 39.3598C120.886 42.1798 121.06 43.7998 122.046 43.7998C122.684 43.7998 122.916 43.4398 122.974 42.5098L123.032 41.2498L123.612 42.5398C124.308 44.1898 125.294 44.0398 126.164 42.1198L126.86 40.6498L126.918 42.2098C126.918 43.0798 127.266 43.7998 127.556 43.7998C127.904 43.7998 128.136 42.5998 128.136 40.7998C128.136 38.3398 127.962 37.7998 127.266 37.7998C126.802 37.7998 126.28 38.1598 126.048 38.6098C124.83 41.4298 124.888 41.3998 124.134 39.5098C123.206 37.3198 122.046 37.2598 121.524 39.3598Z" fill="#CBCBCB"/>
<path d="M130.167 40.6499C129.587 42.2099 129.239 43.5899 129.471 43.6799C130.109 44.0099 131.037 43.4699 131.037 42.7199C131.037 41.6399 133.009 41.8799 133.241 42.9899C133.473 43.9799 135.097 44.0999 135.097 43.1099C135.039 42.7499 134.575 41.4299 133.995 40.1999C132.487 36.9599 131.559 37.0799 130.167 40.6499Z" fill="#CBCBCB"/>
<path d="M136.255 40.8C136.255 43.26 136.429 43.8 137.125 43.8C137.763 43.8 137.995 43.44 138.053 42.36L138.111 40.95L139.271 42.36C141.243 44.73 142.055 44.28 142.055 40.8C142.055 38.34 141.881 37.8 141.185 37.8C140.547 37.8 140.315 38.19 140.257 39.36V40.95L139.039 39.36C137.125 36.84 136.255 37.29 136.255 40.8Z" fill="#CBCBCB"/>
<path d="M144.202 40.32C143.68 41.7 143.216 43.05 143.216 43.32C143.216 44.16 144.376 43.83 144.782 42.9C145.188 41.73 146.928 41.79 147.16 42.99C147.392 43.86 149.016 44.16 148.958 43.26C148.958 42.99 148.494 41.67 147.914 40.35C146.522 37.05 145.536 37.02 144.202 40.32Z" fill="#CBCBCB"/>
<path d="M150.523 38.8198C149.363 40.0798 149.363 41.3998 150.407 42.7498C151.161 43.6798 151.509 43.7998 153.307 43.7998H155.395V42.1498C155.395 40.5898 155.337 40.4998 153.945 40.4998C153.017 40.4998 152.495 40.6798 152.495 40.9498C152.495 41.1898 152.901 41.3998 153.365 41.3998C153.829 41.3998 154.235 41.6698 154.235 41.9998C154.235 42.6598 153.075 42.7798 152.031 42.2398C151.045 41.7298 151.161 39.7498 152.147 39.3298C152.611 39.1198 153.481 38.9998 154.061 39.0598C154.757 39.1198 155.163 38.9398 155.279 38.4598C155.453 37.8898 155.221 37.7998 153.481 37.7998C151.741 37.7998 151.335 37.9498 150.523 38.8198Z" fill="#CBCBCB"/>
<path d="M156.556 40.7998V43.7998H158.876C160.79 43.7998 161.196 43.7098 161.196 43.1998C161.196 42.7498 160.79 42.5998 159.746 42.5998C158.586 42.5998 158.296 42.4498 158.296 41.8498C158.296 41.2498 158.586 41.0998 159.746 41.0998C160.674 41.0998 161.196 40.9198 161.196 40.6498C161.196 40.3798 160.674 40.1998 159.746 40.1998C158.702 40.1998 158.296 40.0498 158.296 39.5998C158.296 39.1498 158.702 38.9998 159.746 38.9998C160.79 38.9998 161.196 38.8498 161.196 38.3998C161.196 37.8898 160.79 37.7998 158.876 37.7998H156.556V40.7998Z" fill="#CBCBCB"/>
<path d="M162.761 38.0098C162.123 38.3398 162.297 43.7998 162.935 43.7998C163.283 43.7998 163.515 43.4098 163.515 42.9298C163.515 42.4198 163.805 41.9398 164.095 41.8498C164.443 41.7598 164.675 41.9698 164.675 42.3598C164.675 43.1698 165.603 44.0098 166.125 43.7398C166.357 43.6198 166.879 42.8398 167.285 41.9398L168.039 40.3498L168.097 42.0598C168.155 43.4398 168.329 43.7998 169.083 43.7998C169.721 43.7998 169.895 43.6498 169.663 43.3198C169.489 43.0498 169.315 41.6998 169.315 40.2898C169.315 38.0398 169.199 37.7698 168.329 37.8598C167.633 37.9198 167.111 38.4598 166.647 39.5998L166.009 41.2498L165.371 40.0498C164.965 39.3898 164.675 38.6098 164.675 38.3098C164.675 37.7998 163.515 37.6198 162.761 38.0098Z" fill="#CBCBCB"/>
<path d="M171.056 40.7998V43.7998H173.086C174.71 43.7998 175.116 43.6798 175.116 43.1998C175.116 42.8098 174.71 42.5998 173.956 42.5998C173.086 42.5998 172.796 42.3898 172.796 41.8498C172.796 41.3698 173.144 41.0998 173.666 41.0998C174.13 41.0998 174.536 40.8898 174.536 40.6498C174.536 40.4098 174.13 40.1998 173.666 40.1998C173.202 40.1998 172.796 39.9298 172.796 39.5998C172.796 39.2098 173.202 38.9998 173.956 38.9998C174.71 38.9998 175.116 38.7898 175.116 38.3998C175.116 37.9198 174.71 37.7998 173.086 37.7998H171.056V40.7998Z" fill="#CBCBCB"/>
<path d="M176.275 40.8C176.275 43.26 176.449 43.8 177.145 43.8C177.783 43.8 178.015 43.44 178.073 42.36L178.131 40.95L179.291 42.36C181.263 44.73 182.075 44.28 182.075 40.8C182.075 38.34 181.901 37.8 181.205 37.8C180.567 37.8 180.335 38.19 180.277 39.36V40.95L179.059 39.36C177.145 36.84 176.275 37.29 176.275 40.8Z" fill="#CBCBCB"/>
<path d="M182.656 38.3998C182.656 38.7898 183.062 38.9998 183.816 38.9998C184.86 38.9998 184.976 39.2098 184.976 41.3998C184.976 42.8098 185.208 43.7998 185.556 43.7998C185.904 43.7998 186.136 42.8098 186.136 41.3998C186.136 39.2098 186.252 38.9998 187.296 38.9998C188.05 38.9998 188.456 38.7898 188.456 38.3998C188.456 37.8898 188.05 37.7998 185.556 37.7998C183.062 37.7998 182.656 37.8898 182.656 38.3998Z" fill="#CBCBCB"/>
</g>
<defs>
<clipPath id="clip0_2003_584">
<rect width="232" height="48" fill="white" transform="translate(0.536621)"/>
</clipPath>
</defs>
</svg>
