<svg width="237" height="76" viewBox="0 0 237 76" fill="none" xmlns="http://www.w3.org/2000/svg">
<g clip-path="url(#clip0_2003_566)">
<path d="M26.5943 43.9244C19.385 46.4977 16.9422 57.0898 22.1853 63.0741C25.3431 66.5449 31.6587 67.5024 34.7569 64.8693L36.6039 63.3134V65.2284C36.6039 69.178 31.5395 71.9906 28.5009 69.7166C27.2497 68.7591 20.815 68.4599 20.2788 69.3575C19.8021 70.1355 22.7216 73.4867 24.8069 74.5638C27.1306 75.7607 33.9228 75.8205 36.6635 74.6237C39.2255 73.5465 41.847 70.9134 42.4429 68.8788C42.6812 68.041 42.8599 62.0567 42.8599 55.6536V43.9843L40 43.8048C37.5572 43.6252 37.1402 43.8048 36.6635 45.0016C36.306 45.7796 36.0677 46.0788 36.0677 45.7197C36.0081 44.7024 32.2545 43.0867 30.2288 43.1465C29.3351 43.1465 27.6668 43.5056 26.5943 43.9244ZM34.8761 50.8063C37.8551 53.7985 37.0806 58.5859 33.3866 60.1418C30.05 61.578 27.071 60.1418 25.8794 56.5512C24.0324 50.8662 30.6458 46.6174 34.8761 50.8063Z" fill="#CBCBCB"/>
<path d="M51.7961 44.2237C47.8638 46.019 44.9443 50.4473 44.9443 54.6363C44.9443 57.0898 46.3742 61.0993 47.8638 62.715C51.379 66.6646 57.5755 67.7418 60.912 64.9292C62.6398 63.493 62.6994 63.493 62.9973 64.63C63.2356 65.6473 63.8314 65.8268 66.3338 65.8268H69.3725V54.756V43.6851H66.3934C63.891 43.6851 63.2952 43.8646 62.9377 44.9418C62.4611 46.1387 62.3419 46.1387 61.5078 45.241C59.1841 42.9072 55.4901 42.5481 51.7961 44.2237ZM61.0907 50.8064C65.6189 55.3544 60.7332 62.715 54.8943 60.2016C52.4515 59.1843 51.4982 57.7481 51.4982 54.8158C51.4982 49.6095 57.3967 47.0961 61.0907 50.8064Z" fill="#CBCBCB"/>
<path d="M80.693 43.5056C80.2164 43.6851 79.2035 44.3434 78.5481 45.0017C77.2969 46.1387 77.2969 46.1387 76.9394 44.882C76.6415 43.8048 76.2245 43.6253 74.02 43.8048L71.458 43.9844V54.756V65.5277H74.4371H77.4161L77.5948 58.3466C77.7736 50.5072 78.3694 49.071 81.2293 49.071C84.3275 49.071 84.5658 49.6694 84.8637 57.8678L85.1616 65.5277H88.1407H91.1197L91.2984 58.3466C91.4772 50.4473 92.0134 49.071 95.052 49.071C98.1502 49.071 98.5673 50.208 98.5673 58.4064V65.8867L101.725 65.7072L104.823 65.5277V56.8505C104.823 48.7718 104.704 48.0536 103.453 46.2584C100.831 42.5481 94.8137 42.1292 91.5368 45.4206C89.9877 47.0363 89.8089 47.0363 88.9748 46.1387C86.7703 43.5056 83.4933 42.4883 80.693 43.5056Z" fill="#CBCBCB"/>
<path d="M114.952 43.8646C109.113 46.1386 106.075 51.8835 107.564 57.6882C109.173 64.0315 116.68 68.1008 122.578 65.8867C124.604 65.1087 128.358 61.6977 128.358 60.6804C128.358 59.5433 123.055 59.5433 120.851 60.7402C118.884 61.7575 116.68 61.3985 114.833 59.663C112.152 57.2095 112.867 56.9103 121.685 56.7308L129.847 56.5512L130.026 55.0552C130.622 50.8662 126.511 45.0016 122.102 43.7449C119.182 42.967 117.276 42.967 114.952 43.8646ZM122.221 49.789C124.723 52.6016 124.604 52.6615 118.884 52.6615C115.488 52.6615 113.463 52.4221 113.463 52.063C113.463 51.704 114.118 50.7465 114.952 49.9685C116.859 47.9937 120.493 47.9339 122.221 49.789Z" fill="#CBCBCB"/>
<path d="M136.401 44.2237C133.005 45.7796 131.456 49.1308 132.767 52.3025C133.363 53.7985 134.316 54.5166 136.759 55.534C141.823 57.6284 142.955 58.2867 143.134 59.4836C143.253 60.082 143.015 60.8001 142.538 61.0993C141.287 61.9371 139.083 61.6977 138.725 60.7403C138.427 60.082 137.474 59.8426 135.091 59.8426C131.992 59.8426 131.873 59.9025 132.29 61.1592C133.244 64.3906 136.461 66.4253 140.512 66.4253C144.921 66.4253 147.96 64.63 149.211 61.3387C150.582 57.808 147.96 53.8584 143.73 52.9607C140.632 52.2426 138.487 50.9261 138.487 49.6694C138.487 48.1135 140.632 47.5749 142.359 48.7119C144.266 49.9686 148.615 50.0284 148.615 48.7718C148.615 47.0363 146.768 45.0017 144.385 44.0442C141.347 42.7875 139.38 42.8473 136.401 44.2237Z" fill="#CBCBCB"/>
<path d="M14.3794 0.658363C6.45519 1.91506 0.914165 8.61742 0.854584 17.0552C0.854584 23.219 2.34411 25.9119 10.3279 33.8111L16.9414 40.3938V37.1025V33.8111L12.1154 29.0237C7.11058 24.0568 5.08483 20.7655 5.02525 17.6536C5.02525 10.0536 11.46 4.12923 18.9076 4.96703C28.381 6.10403 32.9687 17.4143 26.951 24.8347C24.9848 27.1686 21.2312 29.2631 18.9076 29.3229C17.716 29.3229 17.5372 29.6221 17.5372 31.7765V34.23L19.8013 33.8111C25.4019 32.7938 30.0492 29.4426 32.4325 24.7151C33.6241 22.3812 33.922 20.945 33.922 17.0552C33.922 12.8662 33.6837 11.8489 32.1346 9.03632C28.5597 2.57332 22.0058 -0.538486 14.3794 0.658363Z" fill="#CBCBCB"/>
<path d="M14.7964 10.7716C11.5194 12.0881 9.73198 16.696 11.2215 19.8676C14.3197 26.4503 24.091 24.3558 24.091 17.1747C24.091 14.2424 22.9589 12.3275 20.5161 11.0708C18.6095 10.0535 16.7029 9.99362 14.7964 10.7716Z" fill="#CBCBCB"/>
<path d="M159.936 43.4456C154.038 45.8393 151.595 49.0708 151.595 54.5763C151.595 56.9102 152.012 58.885 152.786 60.4409C155.944 66.7243 165.12 68.3401 170.72 63.6125C172.269 62.296 174.236 59.3637 174.236 58.3464C174.236 58.1669 172.806 58.0472 171.078 58.0472C168.695 58.0472 167.622 58.3464 166.848 59.1842C166.311 59.7826 165.12 60.4409 164.286 60.6204C158.864 61.6377 155.468 55.2346 159.102 50.9259C161.128 48.4724 164.583 48.2928 166.848 50.5669C168.039 51.7637 168.933 52.0629 171.316 52.0629C174.176 52.0629 174.295 52.0031 173.938 50.6865C173.223 48.4125 170.839 45.7196 168.456 44.5826C166.133 43.4456 161.485 42.8472 159.936 43.4456Z" fill="#CBCBCB"/>
<path d="M184.126 43.9842C182.875 44.4031 180.909 45.6598 179.836 46.737C174.474 51.9433 176.023 61.8772 182.696 65.1685C190.441 68.8787 199.021 64.2709 199.736 56.0126C200.094 51.7638 199.081 49.011 196.28 46.4378C192.765 43.2661 188.594 42.3685 184.126 43.9842ZM190.978 49.6693C192.706 50.6268 194.076 53.7386 193.659 55.8331C193.063 58.8252 191.097 60.4409 188.177 60.4409C186.092 60.4409 185.377 60.1417 184.066 58.526C182.696 56.9102 182.517 56.1921 182.756 54.2173C183.351 50.0882 187.462 47.8142 190.978 49.6693Z" fill="#CBCBCB"/>
<path d="M210.757 44.044C209.685 44.5826 208.791 45.2408 208.791 45.54C208.791 45.8393 208.553 46.0786 208.196 46.0786C207.898 46.0786 207.6 45.54 207.6 44.8818C207.6 43.8645 207.183 43.6849 204.919 43.6849H202.237V54.7558V65.8267H205.157H208.076L208.315 58.2865C208.493 50.0282 208.97 49.0708 212.426 49.0708C215.286 49.0708 215.941 50.8062 215.941 58.7652V65.8267H218.92H221.899V59.1841C221.899 50.9259 222.674 49.0708 226.189 49.0708C228.989 49.0708 229.645 50.866 229.645 58.7652V65.8267H232.624H235.603V56.9101C235.603 48.1731 235.543 47.9337 234.054 46.1385C231.015 42.4881 224.699 42.3086 221.959 45.8393C220.827 47.2755 220.767 47.2755 219.993 46.1385C218.86 44.5826 216.06 43.0865 214.154 43.0865C213.319 43.0865 211.77 43.5652 210.757 44.044Z" fill="#CBCBCB"/>
<path d="M229.348 59.0645V66.1259L232.803 66.1858L236.199 66.2456L232.923 66.0062L229.705 65.7669L229.467 58.885L229.288 52.0629L229.348 59.0645Z" fill="#CBCBCB"/>
<path d="M215.585 59.5432L215.645 66.1259L219.1 66.1858L222.496 66.2456L219.219 66.0062L216.002 65.7669L215.764 59.3637L215.585 52.9606V59.5432Z" fill="#CBCBCB"/>
<path d="M203.609 66.2457C204.503 66.3654 205.933 66.3654 206.886 66.2457C207.78 66.126 207.005 66.0063 205.218 66.0063C203.43 66.0063 202.656 66.126 203.609 66.2457Z" fill="#CBCBCB"/>
</g>
<defs>
<clipPath id="clip0_2003_566">
<rect width="235.94" height="76" fill="white" transform="translate(0.258759)"/>
</clipPath>
</defs>
</svg>
