<svg width="121" height="74" viewBox="0 0 121 74" fill="none" xmlns="http://www.w3.org/2000/svg">
<g clip-path="url(#clip0_2003_536)">
<path d="M74.3783 2.60673C73.9158 4.66695 73.8317 8.03059 73.9158 17.5329L73.9999 29.8522H76.9431H79.8863V31.534V33.2158H81.6942C83.2499 33.2158 83.7124 32.9635 85.1419 31.534C86.7397 29.8942 86.8658 29.8522 89.5567 29.8522H92.2897L97.4613 24.6806L102.591 19.551V9.75445V-9.15527e-05H88.7999H75.009L74.3783 2.60673ZM100.489 10.3851V18.2476L98.0919 20.476L95.6954 22.7045H92.0794H88.4635L86.109 24.8067L83.7124 26.951L83.5863 24.9329L83.4601 22.9147L80.4328 22.7885L77.3635 22.6624V12.6135V2.52263H88.926H100.489V10.3851Z" fill="#CBCBCB"/>
<path d="M85.646 8.70343C85.4778 8.82957 85.3517 10.5534 85.3517 12.4875C85.3517 15.9352 85.3517 15.9773 86.4028 15.9773C87.454 15.9773 87.454 15.9352 87.454 12.1932C87.454 8.78752 87.3699 8.40911 86.6971 8.40911C86.2767 8.40911 85.7721 8.53525 85.646 8.70343Z" fill="#CBCBCB"/>
<path d="M93.2144 8.70343C93.0462 8.82957 92.92 10.5534 92.92 12.4875C92.92 15.9352 92.92 15.9773 93.9712 15.9773C95.0223 15.9773 95.0223 15.9352 95.0223 12.1932C95.0223 8.78752 94.9382 8.40911 94.2655 8.40911C93.845 8.40911 93.3405 8.53525 93.2144 8.70343Z" fill="#CBCBCB"/>
<path d="M0.00012207 47.9739V61.4704L2.85921 64.4136C4.4149 66.0534 6.05467 67.525 6.51717 67.7352C6.97967 67.9454 7.94671 68.492 8.61944 68.9545C9.33421 69.417 10.2592 69.9636 10.7217 70.2159C11.1842 70.4682 12.1513 71.0148 12.824 71.4773C15.8933 73.4534 16.4399 73.5795 20.8967 73.5795C24.2603 73.5795 25.2274 73.4534 25.2274 72.9909C25.2274 72.3602 27.1615 72.5284 27.5819 73.2011C27.7081 73.4114 31.7444 73.5795 36.5797 73.5795H45.3672L46.8808 72.0239C47.6797 71.1829 48.4365 70.5943 48.5626 70.7204C48.6888 70.8466 48.8569 71.5193 48.899 72.2761L48.9831 73.6216L54.2388 73.4954L59.4944 73.3693L59.6206 71.9818C59.7467 70.5523 60.7979 70.0898 61.2183 71.267C61.3444 71.6034 62.1013 72.2761 62.8581 72.7386C63.9933 73.4534 64.9183 73.5795 68.7024 73.5795C73.3694 73.5795 73.4956 73.5375 73.7478 71.6454C73.916 70.4261 74.5888 70.5523 76.1024 72.1079L77.5319 73.5795H83.2501H88.9683L90.3979 72.1079C91.9535 70.4682 92.5001 70.5523 92.5001 72.3602V73.5795H95.4013C97.6297 73.5795 98.5126 73.4114 99.3535 72.7386C99.9422 72.2761 100.531 71.8977 100.699 71.8977C100.825 71.8977 101.246 71.6034 101.582 71.267C102.675 70.1739 103.264 70.5102 103.096 72.1079L102.927 73.5795H106.417H109.907L115.079 70.1739L120.25 66.7261V56.8034V46.8807L116.971 43.6011L113.733 40.3636H110.075H106.417L106.291 37.5045L106.165 34.6875L99.8581 34.5614L93.5513 34.4773L90.6081 37.4204L87.7069 40.3636H84.2172H80.7694L79.1297 42.1295C77.2376 44.1057 76.3547 44.0216 76.6069 41.7932L76.7751 40.3636H73.7058H70.6785L70.5524 37.5045L70.4263 34.6875H59.074H47.7217L47.5956 37.5045L47.4694 40.3636H33.3001H19.0888L16.1876 37.4204L13.2865 34.4773H6.6433H0.00012207V47.9739ZM10.5956 39.817L10.7217 42.6761L13.791 42.8023L16.8183 42.9284V46.8807V50.8329L13.791 50.9591L10.7217 51.0852L10.5956 54.1125L10.4694 57.1398L13.5388 57.2659L16.6081 57.392L16.7342 61.2602L16.8603 65.1704H12.1092H7.40012L4.96149 62.7739L2.52285 60.3773V48.6886V37H6.51717H10.4694L10.5956 39.817ZM58.0229 38.6818V40.3636H54.0285H50.0342V38.6818V37H54.0285H58.0229V38.6818ZM68.5342 39.9432V42.8864H71.4774H74.4206V46.8807V50.875H71.4774H68.5342V54.0284V57.1818H71.4774H74.4206V61.1761V65.1704H69.9217H65.4229L62.774 62.5636L60.1251 59.9568V48.4784V37H64.3297H68.5342V39.9432ZM103.936 39.817L104.063 42.6761L108.267 42.8023L112.472 42.9284L115.121 45.5352L117.727 48.1V56.6352V65.1704H113.733H109.739L109.655 58.1068L109.529 51.0852H106.796H104.063L103.936 58.1068L103.852 65.1704H99.8581H95.8638V51.0852V37H99.8581H103.81L103.936 39.817ZM26.9933 49.9079L27.1194 56.9716H28.1706H29.2217L29.3479 49.9079L29.4319 42.8864H33.4263H37.4206V50.0341V57.1818H38.4717H39.5229V50.0341V42.8864H43.5172H47.5115V51.8V60.7136L45.3251 62.942L43.1388 65.1704H31.0297H18.9206V54.0284V42.8864H22.9149H26.9092L26.9933 49.9079ZM58.0229 54.0284V65.1704H54.0285H50.0342V54.0284V42.8864H54.0285H58.0229V54.0284ZM93.7615 46.8807V50.875H89.3467H84.9319V54.0284V57.1398L89.2626 57.2659L93.5513 57.392L93.6774 61.3023L93.8035 65.1704H87.5388H81.274L78.9194 62.6898L76.5229 60.167V53.9864V47.8057L78.9615 45.325L81.4422 42.8864H87.5808H93.7615V46.8807Z" fill="#CBCBCB"/>
<path d="M81.064 33.5104C81.5686 33.5945 82.3254 33.5945 82.7459 33.5104C83.1243 33.3843 82.7038 33.3002 81.7788 33.3422C80.8538 33.3422 80.5174 33.4263 81.064 33.5104Z" fill="#CBCBCB"/>
<path d="M57.7286 38.682C57.7286 39.7331 57.8127 40.1536 57.8968 39.607C57.9809 39.1025 57.9809 38.2615 57.8968 37.715C57.8127 37.2104 57.7286 37.6309 57.7286 38.682Z" fill="#CBCBCB"/>
<path d="M60.293 48.5626C60.293 55.0376 60.3771 57.6444 60.4191 54.3228C60.5032 51.0012 60.5032 45.7035 60.4191 42.5501C60.3771 39.3967 60.293 42.0876 60.293 48.5626Z" fill="#CBCBCB"/>
<path d="M96.0312 50.8751C96.0312 58.6114 96.1153 61.8069 96.1574 57.8967C96.2415 54.0285 96.2415 47.7217 96.1574 43.8114C96.1153 39.9433 96.0312 43.1387 96.0312 50.8751Z" fill="#CBCBCB"/>
<path d="M117.728 44.2318C119.452 46.1238 119.83 46.4602 119.83 46.1238C119.83 46.0398 118.947 45.1568 117.854 44.1477L115.836 42.2557L117.728 44.2318Z" fill="#CBCBCB"/>
<path d="M16.5664 46.8809C16.5664 48.9411 16.6085 49.8661 16.6925 48.899C16.7766 47.932 16.7766 46.2081 16.6925 45.1149C16.6085 44.0218 16.5664 44.7786 16.5664 46.8809Z" fill="#CBCBCB"/>
<path d="M19.0898 54.0285C19.0898 60.041 19.1739 62.4376 19.216 59.3682C19.3001 56.2989 19.3001 51.3796 19.216 48.4364C19.1739 45.4932 19.0898 48.016 19.0898 54.0285Z" fill="#CBCBCB"/>
<path d="M37.21 50.3285V57.3921H38.4714H39.7327V50.3285L39.7748 43.3069L39.6487 50.2444L39.5225 57.1819H38.4714H37.4202L37.2941 50.2444L37.168 43.3069L37.21 50.3285Z" fill="#CBCBCB"/>
<path d="M57.7715 54.2388C57.7715 60.3774 57.8556 62.8581 57.8976 59.7888C57.9817 56.7615 57.9817 51.7161 57.8976 48.6467C57.8556 45.6195 57.7715 48.1001 57.7715 54.2388Z" fill="#CBCBCB"/>
<path d="M93.5098 46.8809C93.5098 48.9411 93.5518 49.8661 93.6359 48.899C93.72 47.932 93.72 46.2081 93.6359 45.1149C93.5518 44.0218 93.5098 44.7786 93.5098 46.8809Z" fill="#CBCBCB"/>
<path d="M13.3281 57.4761L16.3553 57.6443L16.5235 61.1761L16.6496 64.75V61.092L16.6076 57.392L13.4542 57.35L10.3008 57.308L13.3281 57.4761Z" fill="#CBCBCB"/>
<path d="M69.6698 57.4762C70.4267 57.5603 71.7721 57.5603 72.613 57.4762C73.496 57.3921 72.9073 57.3081 71.2676 57.3081C69.6698 57.3081 68.9551 57.3921 69.6698 57.4762Z" fill="#CBCBCB"/>
<path d="M89.0113 57.4761L93.2999 57.6443L93.4681 61.1761L93.5942 64.75V61.092L93.5522 57.392L89.1374 57.35H84.7227L89.0113 57.4761Z" fill="#CBCBCB"/>
<path d="M4.83579 62.6477C6.22329 64.0352 7.44261 65.1704 7.5267 65.1704C7.65283 65.1704 6.64374 64.0352 5.25624 62.6477C3.86874 61.2602 2.64942 60.125 2.56533 60.125C2.4392 60.125 3.44829 61.2602 4.83579 62.6477Z" fill="#CBCBCB"/>
<path d="M75.6827 72.108C76.4816 72.9069 77.1964 73.5796 77.3225 73.5796C77.4486 73.5796 76.902 72.9069 76.1032 72.108C75.3043 71.3091 74.5895 70.6364 74.4634 70.6364C74.3373 70.6364 74.8839 71.3091 75.6827 72.108Z" fill="#CBCBCB"/>
<path d="M18.8371 73.8739C20.0565 73.958 21.9485 73.958 23.0417 73.8739C24.1349 73.7899 23.1258 73.7478 20.8133 73.7478C18.5008 73.7478 17.6178 73.7899 18.8371 73.8739Z" fill="#CBCBCB"/>
<path d="M32.7123 73.8739C35.1089 73.958 38.8929 73.958 41.1214 73.8739C43.3498 73.8319 41.4157 73.7478 36.7907 73.7478C32.1657 73.7478 30.3157 73.8319 32.7123 73.8739Z" fill="#CBCBCB"/>
<path d="M51.4216 73.8739C52.9772 73.958 55.4579 73.958 56.8875 73.8739C58.317 73.7899 57.0557 73.7478 54.0284 73.7478C51.0432 73.7478 49.8659 73.7899 51.4216 73.8739Z" fill="#CBCBCB"/>
<path d="M66.5592 73.8739C67.8627 73.958 70.049 73.958 71.3945 73.8739C72.6979 73.7899 71.6047 73.7478 68.9558 73.7478C66.307 73.7478 65.2138 73.7899 66.5592 73.8739Z" fill="#CBCBCB"/>
<path d="M80.6444 73.8739C82.0739 73.958 84.4284 73.958 85.9 73.8739C87.3296 73.7899 86.1523 73.7478 83.2512 73.7478C80.35 73.7478 79.1728 73.7899 80.6444 73.8739Z" fill="#CBCBCB"/>
<path d="M93.8873 73.8739C94.7282 73.958 96.1577 73.958 97.0407 73.8739C97.8816 73.7899 97.1668 73.7058 95.4429 73.7058C93.7191 73.7058 93.0043 73.7899 93.8873 73.8739Z" fill="#CBCBCB"/>
<path d="M104.82 73.8739C105.913 73.958 107.637 73.958 108.604 73.8739C109.571 73.7899 108.688 73.7478 106.586 73.7478C104.526 73.7478 103.727 73.7899 104.82 73.8739Z" fill="#CBCBCB"/>
</g>
<defs>
<clipPath id="clip0_2003_536">
<rect width="120.25" height="74" fill="white"/>
</clipPath>
</defs>
</svg>
