<svg width="230" height="32" viewBox="0 0 230 32" fill="none" xmlns="http://www.w3.org/2000/svg">
<path d="M80.3385 1.8119C87.7317 5.21192 91.341 13.748 88.7019 21.5946C87.486 25.2088 83.4678 29.4513 79.8528 30.937C76.8579 32.1681 70.4041 32.2003 67.4931 30.999C65.4785 30.1679 65.2737 29.8469 65.2737 27.5231C65.2737 26.1151 65.4011 24.963 65.5572 24.963C65.7127 24.963 66.8729 25.5646 68.1349 26.2996C70.8834 27.9017 75.7118 28.078 78.4417 26.6756C84.1391 23.7496 86.5408 17.021 83.9023 11.3756C81.0501 5.27259 74.2278 2.94566 68.1535 6.00378C66.7725 6.69895 65.5598 7.26773 65.4587 7.26773C65.3569 7.26773 65.2737 6.13081 65.2737 4.74173C65.2737 2.49696 65.5054 2.11525 67.3535 1.31707C70.7107 -0.132681 76.5981 0.0916702 80.3385 1.8119Z" fill="#CBCBCB"/>
<path fill-rule="evenodd" clip-rule="evenodd" d="M45.94 2.20562C52.0494 4.94396 52.139 14.5986 46.0833 17.6915C43.8595 18.8271 43.7437 18.472 48.3397 24.647C50.1507 27.0801 51.9854 29.7281 52.4168 30.5313C53.1853 31.9608 53.1437 31.9874 50.4662 31.7952C47.8047 31.6038 47.6172 31.4388 43.464 25.6215C41.1167 22.3333 38.8718 19.5369 38.4764 19.4067C37.9746 19.2417 37.7564 21.1143 37.7564 25.5823V31.9949L35.6766 31.7965L33.5968 31.5987L33.4253 16.2733L33.2538 0.947994L38.2249 0.961896C41.7592 0.972008 43.9888 1.33097 45.94 2.20562ZM37.7564 15.0157V10.1938V5.37181H40.5152C44.0259 5.37181 46.0756 7.09204 46.0756 10.0383C46.0756 12.7779 44.3222 14.2852 40.6624 14.6921L37.7564 15.0157Z" fill="#CBCBCB"/>
<path d="M62.5655 16.2733L62.394 31.5987L60.3142 31.7965L58.2344 31.9949V16.4712V0.947994H60.4857H62.737L62.5655 16.2733Z" fill="#CBCBCB"/>
<path fill-rule="evenodd" clip-rule="evenodd" d="M22.0223 15.5434C25.7486 23.7445 28.7973 30.8011 28.7973 31.2246C28.7973 31.7131 28.0358 31.9223 26.7175 31.7965C24.9058 31.624 24.4208 31.1588 22.9566 28.1911C22.0312 26.3173 20.8128 24.5288 20.2484 24.2166C19.6839 23.9044 16.6974 23.7319 13.6109 23.8324L7.99932 24.015L6.07951 27.647C4.34272 30.9332 3.96195 31.2796 2.0799 31.2808C0.935687 31.2821 9.82285e-05 30.9977 9.82285e-05 30.6488C9.82285e-05 30.3006 2.05046 25.679 4.5571 20.3793C9.22032 10.5186 11.5772 5.43058 13.2302 1.65454C13.7549 0.45695 14.4038 -0.237588 14.7071 0.0746064C15.0041 0.381113 18.2966 7.3423 22.0223 15.5434ZM14.3987 19.9072C9.47054 19.9072 9.44302 19.8326 12.2191 13.9742C13.3082 11.6764 14.3136 9.79562 14.4525 9.79562C14.8671 9.79562 18.5583 18.1124 18.5583 19.0464C18.5583 19.6847 17.4819 19.9072 14.3987 19.9072Z" fill="#CBCBCB"/>
<path d="M106.069 7.62353C107.606 11.0773 109.294 14.8988 109.819 16.1154C110.345 17.3319 111.176 19.1804 111.669 20.2232C113.779 24.6988 115.829 30.1913 115.829 30.7462C115.829 31.0761 113.589 31.5987 113.589 31.5987C113.589 31.5987 112.117 28.2695 108.186 19.638C105.507 13.7549 103.003 8.83881 102.621 8.71305C101.942 8.48933 100.726 10.6918 96.6166 19.5912C91.8715 29.8696 91.1912 31.2827 91.1912 31.2827C91.1912 31.2827 88.3115 31.0893 88.3115 30.7462C88.3115 30.1584 91.0005 24.2981 96.6192 12.6395C97.9592 9.85882 99.7018 6.08025 100.491 4.24247C101.282 2.40469 102.231 1.00108 102.601 1.12242C102.97 1.24439 104.531 4.16979 106.069 7.62353Z" fill="#CBCBCB"/>
<path d="M136.947 1.2071C138.975 1.92629 139.206 2.25681 139.387 4.70065C139.497 6.18516 139.353 7.28353 139.067 7.14196C134.848 5.05582 133.169 4.6305 130.133 4.8795C122.886 5.47292 118.466 12.1042 120.362 19.5394C122.164 26.6074 131.61 30.1818 137.287 25.9438C139.197 24.5181 139.507 24.738 139.507 27.5231C139.507 29.8469 139.302 30.1679 137.287 30.999C134.375 32.201 127.922 32.1675 124.927 30.9358C121.789 29.6446 117.887 25.8964 116.407 22.7511C113.938 17.5044 115.163 10.377 119.384 5.43943C123.164 1.01561 131.05 -0.885361 136.947 1.2071Z" fill="#CBCBCB"/>
<path d="M145.906 16.4712V31.9949L143.826 31.7965L141.746 31.5987L141.575 16.2733L141.403 0.947994H143.655H145.906V16.4712Z" fill="#CBCBCB"/>
<path fill-rule="evenodd" clip-rule="evenodd" d="M170.33 1.63368C181.556 7.28921 182.06 24.0732 171.192 30.3626C168.616 31.854 167.742 32.0259 163.843 31.8085C160.063 31.5974 159.06 31.2783 156.981 29.6238C155.641 28.5583 153.706 26.5157 152.681 25.0843C151.102 22.88 150.772 21.7216 150.525 17.5063C150.198 11.9355 151.221 8.72948 154.577 4.80809C158.3 0.45695 165.225 -0.938447 170.33 1.63368ZM155.934 10.4706C157.161 8.14427 158.464 6.66672 159.974 5.88876C166.688 2.4306 173.998 6.91445 174.579 14.8463C174.726 16.8611 174.52 19.4876 174.121 20.6826C173.103 23.7268 169.916 26.7218 166.817 27.5459C161.022 29.0866 155.135 24.2261 154.461 17.3445C154.175 14.4122 154.392 13.396 155.934 10.4706Z" fill="#CBCBCB"/>
<path d="M187.502 11.7231C187.502 23.9733 187.974 25.6942 191.759 27.2558C194.556 28.4098 197.727 27.5629 199.65 25.1481C200.834 23.6617 200.941 22.6007 200.941 12.2382V0.947994H203.218H205.496L205.298 13.2272C205.078 26.8513 204.923 27.3904 200.307 30.4927C197.317 32.5024 191.125 32.5024 188.135 30.4927C183.52 27.3904 183.364 26.8513 183.145 13.2272L182.946 0.947994H185.224H187.502V11.7231Z" fill="#CBCBCB"/>
<path d="M225.057 1.54837C226.179 2.22395 227.408 3.35076 227.788 4.05225C228.368 5.12281 228.216 5.49883 226.845 6.38612C225.288 7.39349 225.142 7.37959 223.753 6.09162C221.892 4.36507 218.641 4.32273 216.939 6.00378C214.418 8.49312 215.34 9.86008 221.799 13.214C227.828 16.3441 229.348 18.1718 229.333 22.2746C229.312 28.3699 225.695 31.9084 219.481 31.9122C214.674 31.9153 211.119 29.4102 210.183 25.358C209.39 21.927 213.468 21.2059 215.019 24.5029C217.541 29.8639 224.618 28.4515 224.618 22.5868C224.618 20.3123 222.873 18.678 218.088 16.4712C213.273 14.2498 211.18 11.7762 211.18 8.30795C211.18 6.84746 211.645 4.99641 212.214 4.19444C214.901 0.406392 221.055 -0.861345 225.057 1.54837Z" fill="#CBCBCB"/>
</svg>
