<svg width="121" height="74" viewBox="0 0 121 74" fill="none" xmlns="http://www.w3.org/2000/svg">
<g opacity="0.3">
<g clip-path="url(#clip0_2003_534)">
<path d="M74.3779 2.60673C73.9154 4.66695 73.8313 8.03059 73.9154 17.5329L73.9995 29.8522H76.9427H79.8859V31.534V33.2158H81.6938C83.2495 33.2158 83.712 32.9635 85.1416 31.534C86.7393 29.8942 86.8654 29.8522 89.5563 29.8522H92.2893L97.4609 24.6806L102.59 19.551V9.75445V-9.15527e-05H88.7995H75.0086L74.3779 2.60673ZM100.488 10.3851V18.2476L98.0916 20.476L95.695 22.7045H92.0791H88.4632L86.1086 24.8067L83.712 26.951L83.5859 24.9329L83.4598 22.9147L80.4325 22.7885L77.3632 22.6624V12.6135V2.52263H88.9257H100.488V10.3851Z" fill="#CBCBCB"/>
<path d="M85.6458 8.70343C85.4776 8.82957 85.3514 10.5534 85.3514 12.4875C85.3514 15.9352 85.3514 15.9773 86.4026 15.9773C87.4537 15.9773 87.4537 15.9352 87.4537 12.1932C87.4537 8.78752 87.3696 8.40911 86.6969 8.40911C86.2764 8.40911 85.7719 8.53525 85.6458 8.70343Z" fill="#CBCBCB"/>
<path d="M93.2141 8.70343C93.0459 8.82957 92.9198 10.5534 92.9198 12.4875C92.9198 15.9352 92.9198 15.9773 93.9709 15.9773C95.0221 15.9773 95.0221 15.9352 95.0221 12.1932C95.0221 8.78752 94.938 8.40911 94.2653 8.40911C93.8448 8.40911 93.3403 8.53525 93.2141 8.70343Z" fill="#CBCBCB"/>
<path d="M-0.00012207 47.9739V61.4704L2.85897 64.4136C4.41465 66.0534 6.05442 67.525 6.51692 67.7352C6.97942 67.9454 7.94647 68.492 8.6192 68.9545C9.33397 69.417 10.259 69.9636 10.7215 70.2159C11.184 70.4682 12.151 71.0148 12.8237 71.4773C15.8931 73.4534 16.4397 73.5795 20.8965 73.5795C24.2601 73.5795 25.2272 73.4534 25.2272 72.9909C25.2272 72.3602 27.1612 72.5284 27.5817 73.2011C27.7078 73.4114 31.7442 73.5795 36.5794 73.5795H45.3669L46.8806 72.0239C47.6794 71.1829 48.4362 70.5943 48.5624 70.7204C48.6885 70.8466 48.8567 71.5193 48.8987 72.2761L48.9828 73.6216L54.2385 73.4954L59.4942 73.3693L59.6203 71.9818C59.7465 70.5523 60.7976 70.0898 61.2181 71.267C61.3442 71.6034 62.101 72.2761 62.8578 72.7386C63.9931 73.4534 64.9181 73.5795 68.7021 73.5795C73.3692 73.5795 73.4953 73.5375 73.7476 71.6454C73.9158 70.4261 74.5885 70.5523 76.1021 72.1079L77.5317 73.5795H83.2499H88.9681L90.3976 72.1079C91.9533 70.4682 92.4999 70.5523 92.4999 72.3602V73.5795H95.401C97.6294 73.5795 98.5124 73.4114 99.3533 72.7386C99.9419 72.2761 100.531 71.8977 100.699 71.8977C100.825 71.8977 101.245 71.6034 101.582 71.267C102.675 70.1739 103.264 70.5102 103.095 72.1079L102.927 73.5795H106.417H109.907L115.078 70.1739L120.25 66.7261V56.8034V46.8807L116.97 43.6011L113.733 40.3636H110.075H106.417L106.291 37.5045L106.165 34.6875L99.8578 34.5614L93.551 34.4773L90.6078 37.4204L87.7067 40.3636H84.2169H80.7692L79.1294 42.1295C77.2374 44.1057 76.3544 44.0216 76.6067 41.7932L76.7749 40.3636H73.7056H70.6783L70.5522 37.5045L70.426 34.6875H59.0737H47.7215L47.5953 37.5045L47.4692 40.3636H33.2999H19.0885L16.1874 37.4204L13.2862 34.4773H6.64306H-0.00012207V47.9739ZM10.5953 39.817L10.7215 42.6761L13.7908 42.8023L16.8181 42.9284V46.8807V50.8329L13.7908 50.9591L10.7215 51.0852L10.5953 54.1125L10.4692 57.1398L13.5385 57.2659L16.6078 57.392L16.734 61.2602L16.8601 65.1704H12.109H7.39988L4.96124 62.7739L2.52261 60.3773V48.6886V37H6.51692H10.4692L10.5953 39.817ZM58.0226 38.6818V40.3636H54.0283H50.034V38.6818V37H54.0283H58.0226V38.6818ZM68.534 39.9432V42.8864H71.4771H74.4203V46.8807V50.875H71.4771H68.534V54.0284V57.1818H71.4771H74.4203V61.1761V65.1704H69.9215H65.4226L62.7737 62.5636L60.1249 59.9568V48.4784V37H64.3294H68.534V39.9432ZM103.936 39.817L104.062 42.6761L108.267 42.8023L112.471 42.9284L115.12 45.5352L117.727 48.1V56.6352V65.1704H113.733H109.739L109.654 58.1068L109.528 51.0852H106.795H104.062L103.936 58.1068L103.852 65.1704H99.8578H95.8635V51.0852V37H99.8578H103.81L103.936 39.817ZM26.9931 49.9079L27.1192 56.9716H28.1703H29.2215L29.3476 49.9079L29.4317 42.8864H33.426H37.4203V50.0341V57.1818H38.4715H39.5226V50.0341V42.8864H43.5169H47.5112V51.8V60.7136L45.3249 62.942L43.1385 65.1704H31.0294H18.9203V54.0284V42.8864H22.9147H26.909L26.9931 49.9079ZM58.0226 54.0284V65.1704H54.0283H50.034V54.0284V42.8864H54.0283H58.0226V54.0284ZM93.7612 46.8807V50.875H89.3465H84.9317V54.0284V57.1398L89.2624 57.2659L93.551 57.392L93.6772 61.3023L93.8033 65.1704H87.5385H81.2737L78.9192 62.6898L76.5226 60.167V53.9864V47.8057L78.9612 45.325L81.4419 42.8864H87.5806H93.7612V46.8807Z" fill="#CBCBCB"/>
<path d="M81.064 33.5104C81.5685 33.5945 82.3253 33.5945 82.7458 33.5104C83.1242 33.3843 82.7037 33.3002 81.7787 33.3422C80.8537 33.3422 80.5174 33.4263 81.064 33.5104Z" fill="#CBCBCB"/>
<path d="M57.7285 38.682C57.7285 39.7331 57.8126 40.1536 57.8967 39.607C57.9808 39.1025 57.9808 38.2615 57.8967 37.715C57.8126 37.2104 57.7285 37.6309 57.7285 38.682Z" fill="#CBCBCB"/>
<path d="M60.293 48.5626C60.293 55.0376 60.3771 57.6444 60.4191 54.3228C60.5032 51.0012 60.5032 45.7035 60.4191 42.5501C60.3771 39.3967 60.293 42.0876 60.293 48.5626Z" fill="#CBCBCB"/>
<path d="M96.0312 50.8751C96.0312 58.6114 96.1153 61.8069 96.1574 57.8967C96.2415 54.0285 96.2415 47.7217 96.1574 43.8114C96.1153 39.9433 96.0312 43.1387 96.0312 50.8751Z" fill="#CBCBCB"/>
<path d="M117.728 44.2318C119.452 46.1238 119.83 46.4602 119.83 46.1238C119.83 46.0398 118.947 45.1568 117.854 44.1477L115.836 42.2557L117.728 44.2318Z" fill="#CBCBCB"/>
<path d="M16.5663 46.8809C16.5663 48.9411 16.6084 49.8661 16.6925 48.899C16.7766 47.932 16.7766 46.2081 16.6925 45.1149C16.6084 44.0218 16.5663 44.7786 16.5663 46.8809Z" fill="#CBCBCB"/>
<path d="M19.0898 54.0285C19.0898 60.041 19.1739 62.4376 19.216 59.3682C19.3001 56.2989 19.3001 51.3796 19.216 48.4364C19.1739 45.4932 19.0898 48.016 19.0898 54.0285Z" fill="#CBCBCB"/>
<path d="M37.21 50.3285V57.3921H38.4714H39.7327V50.3285L39.7748 43.3069L39.6487 50.2444L39.5225 57.1819H38.4714H37.4202L37.2941 50.2444L37.168 43.3069L37.21 50.3285Z" fill="#CBCBCB"/>
<path d="M57.7715 54.2388C57.7715 60.3774 57.8556 62.8581 57.8976 59.7888C57.9817 56.7615 57.9817 51.7161 57.8976 48.6467C57.8556 45.6195 57.7715 48.1001 57.7715 54.2388Z" fill="#CBCBCB"/>
<path d="M93.5097 46.8809C93.5097 48.9411 93.5518 49.8661 93.6358 48.899C93.7199 47.932 93.7199 46.2081 93.6358 45.1149C93.5518 44.0218 93.5097 44.7786 93.5097 46.8809Z" fill="#CBCBCB"/>
<path d="M13.3281 57.4761L16.3553 57.6443L16.5235 61.1761L16.6496 64.75V61.092L16.6076 57.392L13.4542 57.35L10.3008 57.308L13.3281 57.4761Z" fill="#CBCBCB"/>
<path d="M69.6697 57.4762C70.4265 57.5603 71.772 57.5603 72.6129 57.4762C73.4959 57.3921 72.9072 57.3081 71.2674 57.3081C69.6697 57.3081 68.9549 57.3921 69.6697 57.4762Z" fill="#CBCBCB"/>
<path d="M89.0113 57.4761L93.2999 57.6443L93.4681 61.1761L93.5942 64.75V61.092L93.5522 57.392L89.1374 57.35H84.7227L89.0113 57.4761Z" fill="#CBCBCB"/>
<path d="M4.83573 62.6477C6.22323 64.0352 7.44254 65.1704 7.52664 65.1704C7.65277 65.1704 6.64368 64.0352 5.25618 62.6477C3.86868 61.2602 2.64936 60.125 2.56527 60.125C2.43913 60.125 3.44823 61.2602 4.83573 62.6477Z" fill="#CBCBCB"/>
<path d="M75.6827 72.108C76.4816 72.9069 77.1964 73.5796 77.3225 73.5796C77.4486 73.5796 76.902 72.9069 76.1032 72.108C75.3043 71.3091 74.5895 70.6364 74.4634 70.6364C74.3373 70.6364 74.8839 71.3091 75.6827 72.108Z" fill="#CBCBCB"/>
<path d="M18.8371 73.8739C20.0565 73.958 21.9485 73.958 23.0417 73.8739C24.1349 73.7899 23.1258 73.7478 20.8133 73.7478C18.5008 73.7478 17.6178 73.7899 18.8371 73.8739Z" fill="#CBCBCB"/>
<path d="M32.7123 73.8739C35.1089 73.958 38.8929 73.958 41.1214 73.8739C43.3498 73.8319 41.4157 73.7478 36.7907 73.7478C32.1657 73.7478 30.3157 73.8319 32.7123 73.8739Z" fill="#CBCBCB"/>
<path d="M51.4216 73.8739C52.9772 73.958 55.4579 73.958 56.8875 73.8739C58.317 73.7899 57.0557 73.7478 54.0284 73.7478C51.0432 73.7478 49.8659 73.7899 51.4216 73.8739Z" fill="#CBCBCB"/>
<path d="M66.5592 73.8739C67.8627 73.958 70.049 73.958 71.3945 73.8739C72.6979 73.7899 71.6047 73.7478 68.9558 73.7478C66.307 73.7478 65.2138 73.7899 66.5592 73.8739Z" fill="#CBCBCB"/>
<path d="M80.6444 73.8739C82.0739 73.958 84.4284 73.958 85.9 73.8739C87.3296 73.7899 86.1523 73.7478 83.2512 73.7478C80.35 73.7478 79.1728 73.7899 80.6444 73.8739Z" fill="#CBCBCB"/>
<path d="M93.8873 73.8739C94.7282 73.958 96.1577 73.958 97.0407 73.8739C97.8816 73.7899 97.1668 73.7058 95.4429 73.7058C93.7191 73.7058 93.0043 73.7899 93.8873 73.8739Z" fill="#CBCBCB"/>
<path d="M104.82 73.8739C105.913 73.958 107.637 73.958 108.604 73.8739C109.571 73.7899 108.688 73.7478 106.586 73.7478C104.526 73.7478 103.727 73.7899 104.82 73.8739Z" fill="#CBCBCB"/>
</g>
</g>
<defs>
<clipPath id="clip0_2003_534">
<rect width="120.25" height="74" fill="white"/>
</clipPath>
</defs>
</svg>
